<svg width="198" height="26" viewBox="0 0 198 26" fill="none" xmlns="http://www.w3.org/2000/svg">
<g clip-path="url(#clip0_1_4)">
<path d="M52.3041 23V5.12H59.8401C61.0241 5.12 62.0321 5.328 62.8641 5.744C63.7121 6.144 64.3601 6.72 64.8081 7.472C65.2721 8.208 65.5041 9.104 65.5041 10.16C65.5041 10.976 65.2801 11.744 64.8321 12.464C64.4001 13.168 63.7041 13.752 62.7441 14.216V12.704C63.6241 13.04 64.3201 13.456 64.8321 13.952C65.3441 14.448 65.7041 15 65.9121 15.608C66.1201 16.216 66.2241 16.856 66.2241 17.528C66.2241 19.24 65.6561 20.584 64.5201 21.56C63.4001 22.52 61.8401 23 59.8401 23H52.3041ZM55.5681 20.12H60.1761C61.0241 20.12 61.6961 19.888 62.1921 19.424C62.7041 18.944 62.9601 18.312 62.9601 17.528C62.9601 16.744 62.7041 16.112 62.1921 15.632C61.6961 15.152 61.0241 14.912 60.1761 14.912H55.5681V20.12ZM55.5681 12.056H60.0081C60.6801 12.056 61.2161 11.864 61.6161 11.48C62.0161 11.08 62.2161 10.568 62.2161 9.944C62.2161 9.32 62.0161 8.824 61.6161 8.456C61.2161 8.088 60.6801 7.904 60.0081 7.904H55.5681V12.056ZM71.8739 23.288C70.9619 23.288 70.1699 23.136 69.4979 22.832C68.8259 22.528 68.3059 22.096 67.9379 21.536C67.5699 20.96 67.3859 20.296 67.3859 19.544C67.3859 18.824 67.5459 18.184 67.8659 17.624C68.1859 17.048 68.6819 16.568 69.3539 16.184C70.0259 15.8 70.8739 15.528 71.8979 15.368L76.1699 14.672V17.072L72.4979 17.696C71.8739 17.808 71.4099 18.008 71.1059 18.296C70.8019 18.584 70.6499 18.96 70.6499 19.424C70.6499 19.872 70.8179 20.232 71.1539 20.504C71.5059 20.76 71.9379 20.888 72.4499 20.888C73.1059 20.888 73.6819 20.752 74.1779 20.48C74.6899 20.192 75.0819 19.8 75.3539 19.304C75.6419 18.808 75.7859 18.264 75.7859 17.672V14.312C75.7859 13.752 75.5619 13.288 75.1139 12.92C74.6819 12.536 74.1059 12.344 73.3859 12.344C72.7139 12.344 72.1139 12.528 71.5859 12.896C71.0739 13.248 70.6979 13.72 70.4579 14.312L67.8899 13.064C68.1459 12.376 68.5459 11.784 69.0899 11.288C69.6499 10.776 70.3059 10.376 71.0579 10.088C71.8099 9.8 72.6259 9.656 73.5059 9.656C74.5779 9.656 75.5219 9.856 76.3379 10.256C77.1539 10.64 77.7859 11.184 78.2339 11.888C78.6979 12.576 78.9299 13.384 78.9299 14.312V23H75.9539V20.768L76.6259 20.72C76.2899 21.28 75.8899 21.752 75.4259 22.136C74.9619 22.504 74.4339 22.792 73.8419 23C73.2499 23.192 72.5939 23.288 71.8739 23.288ZM81.1157 23V9.944H84.0677V12.512L83.8277 12.056C84.1317 11.272 84.6277 10.68 85.3157 10.28C86.0197 9.864 86.8357 9.656 87.7637 9.656C88.7237 9.656 89.5717 9.864 90.3077 10.28C91.0597 10.696 91.6437 11.28 92.0597 12.032C92.4757 12.768 92.6837 13.624 92.6837 14.6V23H89.5397V15.344C89.5397 14.768 89.4277 14.272 89.2037 13.856C88.9797 13.44 88.6677 13.12 88.2677 12.896C87.8837 12.656 87.4277 12.536 86.8997 12.536C86.3877 12.536 85.9317 12.656 85.5317 12.896C85.1317 13.12 84.8197 13.44 84.5957 13.856C84.3717 14.272 84.2597 14.768 84.2597 15.344V23H81.1157ZM94.6223 23V4.832H97.7663V16.736L96.5663 16.376L102.71 9.944H106.622L101.798 15.2L106.718 23H103.118L98.8463 16.232L100.718 15.848L96.7823 20.072L97.7663 18.152V23H94.6223ZM117.683 23.288C116.403 23.288 115.235 22.992 114.179 22.4C113.139 21.808 112.307 21 111.683 19.976C111.075 18.952 110.771 17.784 110.771 16.472C110.771 15.16 111.075 13.992 111.683 12.968C112.307 11.944 113.139 11.136 114.179 10.544C115.219 9.952 116.387 9.656 117.683 9.656C118.963 9.656 120.123 9.952 121.163 10.544C122.203 11.136 123.027 11.944 123.635 12.968C124.259 13.976 124.571 15.144 124.571 16.472C124.571 17.784 124.259 18.952 123.635 19.976C123.011 21 122.179 21.808 121.139 22.4C120.099 22.992 118.947 23.288 117.683 23.288ZM117.683 20.408C118.387 20.408 119.003 20.24 119.531 19.904C120.075 19.568 120.499 19.104 120.803 18.512C121.123 17.904 121.283 17.224 121.283 16.472C121.283 15.704 121.123 15.032 120.803 14.456C120.499 13.864 120.075 13.4 119.531 13.064C119.003 12.712 118.387 12.536 117.683 12.536C116.963 12.536 116.331 12.712 115.787 13.064C115.243 13.4 114.811 13.864 114.491 14.456C114.187 15.032 114.035 15.704 114.035 16.472C114.035 17.224 114.187 17.904 114.491 18.512C114.811 19.104 115.243 19.568 115.787 19.904C116.331 20.24 116.963 20.408 117.683 20.408ZM127.466 23V12.752H125.162V9.944H127.466V9.512C127.466 8.52 127.666 7.68 128.066 6.992C128.482 6.288 129.058 5.752 129.794 5.384C130.53 5.016 131.402 4.832 132.41 4.832C132.602 4.832 132.81 4.848 133.034 4.88C133.274 4.896 133.474 4.92 133.634 4.952V7.664C133.474 7.632 133.322 7.616 133.178 7.616C133.05 7.6 132.93 7.592 132.818 7.592C132.114 7.592 131.57 7.752 131.186 8.072C130.802 8.376 130.61 8.856 130.61 9.512V9.944H133.514V12.752H130.61V23H127.466ZM138.794 23V5.12H141.338L151.178 18.368L149.858 18.632V5.12H153.122V23H150.554L140.858 9.656L142.058 9.392V23H138.794ZM161.983 23.288C160.703 23.288 159.535 22.992 158.479 22.4C157.439 21.808 156.607 21 155.983 19.976C155.375 18.952 155.071 17.784 155.071 16.472C155.071 15.16 155.375 13.992 155.983 12.968C156.607 11.944 157.439 11.136 158.479 10.544C159.519 9.952 160.687 9.656 161.983 9.656C163.263 9.656 164.423 9.952 165.463 10.544C166.503 11.136 167.327 11.944 167.935 12.968C168.559 13.976 168.871 15.144 168.871 16.472C168.871 17.784 168.559 18.952 167.935 19.976C167.311 21 166.479 21.808 165.439 22.4C164.399 22.992 163.247 23.288 161.983 23.288ZM161.983 20.408C162.687 20.408 163.303 20.24 163.831 19.904C164.375 19.568 164.799 19.104 165.103 18.512C165.423 17.904 165.583 17.224 165.583 16.472C165.583 15.704 165.423 15.032 165.103 14.456C164.799 13.864 164.375 13.4 163.831 13.064C163.303 12.712 162.687 12.536 161.983 12.536C161.263 12.536 160.631 12.712 160.087 13.064C159.543 13.4 159.111 13.864 158.791 14.456C158.487 15.032 158.335 15.704 158.335 16.472C158.335 17.224 158.487 17.904 158.791 18.512C159.111 19.104 159.543 19.568 160.087 19.904C160.631 20.24 161.263 20.408 161.983 20.408ZM174.237 23L169.101 9.944H172.533L176.253 20.216H174.981L178.725 9.944H182.157L177.021 23H174.237ZM186.666 23.288C185.754 23.288 184.962 23.136 184.29 22.832C183.618 22.528 183.098 22.096 182.73 21.536C182.362 20.96 182.178 20.296 182.178 19.544C182.178 18.824 182.338 18.184 182.658 17.624C182.978 17.048 183.474 16.568 184.146 16.184C184.818 15.8 185.666 15.528 186.69 15.368L190.962 14.672V17.072L187.29 17.696C186.666 17.808 186.202 18.008 185.898 18.296C185.594 18.584 185.442 18.96 185.442 19.424C185.442 19.872 185.61 20.232 185.946 20.504C186.298 20.76 186.73 20.888 187.242 20.888C187.898 20.888 188.474 20.752 188.97 20.48C189.482 20.192 189.874 19.8 190.146 19.304C190.434 18.808 190.578 18.264 190.578 17.672V14.312C190.578 13.752 190.354 13.288 189.906 12.92C189.474 12.536 188.898 12.344 188.178 12.344C187.506 12.344 186.906 12.528 186.378 12.896C185.866 13.248 185.49 13.72 185.25 14.312L182.682 13.064C182.938 12.376 183.338 11.784 183.882 11.288C184.442 10.776 185.098 10.376 185.85 10.088C186.602 9.8 187.418 9.656 188.298 9.656C189.37 9.656 190.314 9.856 191.13 10.256C191.946 10.64 192.578 11.184 193.026 11.888C193.49 12.576 193.722 13.384 193.722 14.312V23H190.746V20.768L191.418 20.72C191.082 21.28 190.682 21.752 190.218 22.136C189.754 22.504 189.226 22.792 188.634 23C188.042 23.192 187.386 23.288 186.666 23.288Z" fill="#11142D"/>
<path d="M22.9144 26C26.0567 26 28.6579 23.7425 28.0764 21.0288C27.7118 19.3274 27.16 17.6594 26.4267 16.0502C24.9892 12.8958 22.8823 10.0295 20.2262 7.61522C17.57 5.2009 14.4167 3.28575 10.9463 1.97913C9.23298 1.33406 7.45892 0.843537 5.6497 0.512195C2.57348 -0.0511833 0 2.23858 0 5V21C0 23.7614 2.54735 26 5.68966 26H22.9144Z" fill="#615DFF"/>
<g style="mix-blend-mode:multiply">
<path d="M15.5911 26C12.4488 26 9.84759 23.7425 10.4292 21.0288C10.7938 19.3274 11.3455 17.6594 12.0788 16.0502C13.5163 12.8958 15.6232 10.0295 18.2794 7.61522C20.9355 5.2009 24.0889 3.28575 27.5592 1.97913C29.2726 1.33406 31.0466 0.843537 32.8558 0.512195C35.9321 -0.0511833 38.5055 2.23858 38.5055 5V21C38.5055 23.7614 35.9582 26 32.8159 26H15.5911Z" fill="#3DD9EB"/>
</g>
</g>
<defs>
<clipPath id="clip0_1_4">
<rect width="198" height="26" fill="white"/>
</clipPath>
</defs>
</svg>
