<svg width="198" height="26" viewBox="0 0 198 26" fill="none" xmlns="http://www.w3.org/2000/svg">
<g clip-path="url(#clip0_1_4)">
<path d="M1.728 23V5.12H9.264C10.448 5.12 11.456 5.328 12.288 5.744C13.136 6.144 13.784 6.72 14.232 7.472C14.696 8.208 14.928 9.104 14.928 10.16C14.928 10.976 14.704 11.744 14.256 12.464C13.824 13.168 13.128 13.752 12.168 14.216V12.704C13.048 13.04 13.744 13.456 14.256 13.952C14.768 14.448 15.128 15 15.336 15.608C15.544 16.216 15.648 16.856 15.648 17.528C15.648 19.24 15.08 20.584 13.944 21.56C12.824 22.52 11.264 23 9.264 23H1.728ZM4.992 20.12H9.6C10.448 20.12 11.12 19.888 11.616 19.424C12.128 18.944 12.384 18.312 12.384 17.528C12.384 16.744 12.128 16.112 11.616 15.632C11.12 15.152 10.448 14.912 9.6 14.912H4.992V20.12ZM4.992 12.056H9.432C10.104 12.056 10.64 11.864 11.04 11.48C11.44 11.08 11.64 10.568 11.64 9.944C11.64 9.32 11.44 8.824 11.04 8.456C10.64 8.088 10.104 7.904 9.432 7.904H4.992V12.056ZM21.2977 23.288C20.3858 23.288 19.5938 23.136 18.9217 22.832C18.2497 22.528 17.7297 22.096 17.3617 21.536C16.9937 20.96 16.8097 20.296 16.8097 19.544C16.8097 18.824 16.9697 18.184 17.2897 17.624C17.6097 17.048 18.1057 16.568 18.7777 16.184C19.4497 15.8 20.2977 15.528 21.3218 15.368L25.5938 14.672V17.072L21.9217 17.696C21.2977 17.808 20.8338 18.008 20.5297 18.296C20.2257 18.584 20.0738 18.96 20.0738 19.424C20.0738 19.872 20.2418 20.232 20.5777 20.504C20.9297 20.76 21.3617 20.888 21.8737 20.888C22.5297 20.888 23.1058 20.752 23.6018 20.48C24.1137 20.192 24.5057 19.8 24.7778 19.304C25.0658 18.808 25.2098 18.264 25.2098 17.672V14.312C25.2098 13.752 24.9858 13.288 24.5378 12.92C24.1058 12.536 23.5298 12.344 22.8097 12.344C22.1377 12.344 21.5378 12.528 21.0098 12.896C20.4978 13.248 20.1217 13.72 19.8817 14.312L17.3137 13.064C17.5697 12.376 17.9697 11.784 18.5137 11.288C19.0737 10.776 19.7297 10.376 20.4817 10.088C21.2337 9.8 22.0497 9.656 22.9297 9.656C24.0018 9.656 24.9458 9.856 25.7618 10.256C26.5778 10.64 27.2098 11.184 27.6578 11.888C28.1218 12.576 28.3538 13.384 28.3538 14.312V23H25.3778V20.768L26.0498 20.72C25.7138 21.28 25.3138 21.752 24.8498 22.136C24.3858 22.504 23.8578 22.792 23.2658 23C22.6738 23.192 22.0178 23.288 21.2977 23.288ZM30.5396 23V9.944H33.4916V12.512L33.2516 12.056C33.5556 11.272 34.0516 10.68 34.7396 10.28C35.4436 9.864 36.2596 9.656 37.1876 9.656C38.1476 9.656 38.9956 9.864 39.7316 10.28C40.4836 10.696 41.0676 11.28 41.4836 12.032C41.8996 12.768 42.1076 13.624 42.1076 14.6V23H38.9636V15.344C38.9636 14.768 38.8516 14.272 38.6276 13.856C38.4036 13.44 38.0916 13.12 37.6916 12.896C37.3076 12.656 36.8516 12.536 36.3236 12.536C35.8116 12.536 35.3556 12.656 34.9556 12.896C34.5556 13.12 34.2436 13.44 34.0196 13.856C33.7956 14.272 33.6836 14.768 33.6836 15.344V23H30.5396ZM44.0462 23V4.832H47.1902V16.736L45.9902 16.376L52.1342 9.944H56.0462L51.2222 15.2L56.1422 23H52.5422L48.2702 16.232L50.1422 15.848L46.2062 20.072L47.1902 18.152V23H44.0462ZM67.1074 23.288C65.8274 23.288 64.6594 22.992 63.6034 22.4C62.5634 21.808 61.7314 21 61.1074 19.976C60.4994 18.952 60.1954 17.784 60.1954 16.472C60.1954 15.16 60.4994 13.992 61.1074 12.968C61.7314 11.944 62.5634 11.136 63.6034 10.544C64.6434 9.952 65.8114 9.656 67.1074 9.656C68.3874 9.656 69.5474 9.952 70.5874 10.544C71.6274 11.136 72.4514 11.944 73.0594 12.968C73.6834 13.976 73.9954 15.144 73.9954 16.472C73.9954 17.784 73.6834 18.952 73.0594 19.976C72.4354 21 71.6034 21.808 70.5634 22.4C69.5234 22.992 68.3714 23.288 67.1074 23.288ZM67.1074 20.408C67.8114 20.408 68.4274 20.24 68.9554 19.904C69.4994 19.568 69.9234 19.104 70.2274 18.512C70.5474 17.904 70.7074 17.224 70.7074 16.472C70.7074 15.704 70.5474 15.032 70.2274 14.456C69.9234 13.864 69.4994 13.4 68.9554 13.064C68.4274 12.712 67.8114 12.536 67.1074 12.536C66.3874 12.536 65.7554 12.712 65.2114 13.064C64.6674 13.4 64.2354 13.864 63.9154 14.456C63.6114 15.032 63.4594 15.704 63.4594 16.472C63.4594 17.224 63.6114 17.904 63.9154 18.512C64.2354 19.104 64.6674 19.568 65.2114 19.904C65.7554 20.24 66.3874 20.408 67.1074 20.408ZM76.8904 23V12.752H74.5864V9.944H76.8904V9.512C76.8904 8.52 77.0904 7.68 77.4904 6.992C77.9064 6.288 78.4824 5.752 79.2184 5.384C79.9544 5.016 80.8264 4.832 81.8344 4.832C82.0264 4.832 82.2344 4.848 82.4584 4.88C82.6984 4.896 82.8984 4.92 83.0584 4.952V7.664C82.8984 7.632 82.7464 7.616 82.6024 7.616C82.4744 7.6 82.3544 7.592 82.2424 7.592C81.5384 7.592 80.9944 7.752 80.6104 8.072C80.2264 8.376 80.0344 8.856 80.0344 9.512V9.944H82.9384V12.752H80.0344V23H76.8904ZM88.218 23V5.12H90.762L100.602 18.368L99.282 18.632V5.12H102.546V23H99.978L90.282 9.656L91.482 9.392V23H88.218ZM111.407 23.288C110.127 23.288 108.959 22.992 107.903 22.4C106.863 21.808 106.031 21 105.407 19.976C104.799 18.952 104.495 17.784 104.495 16.472C104.495 15.16 104.799 13.992 105.407 12.968C106.031 11.944 106.863 11.136 107.903 10.544C108.943 9.952 110.111 9.656 111.407 9.656C112.687 9.656 113.847 9.952 114.887 10.544C115.927 11.136 116.751 11.944 117.359 12.968C117.983 13.976 118.295 15.144 118.295 16.472C118.295 17.784 117.983 18.952 117.359 19.976C116.735 21 115.903 21.808 114.863 22.4C113.823 22.992 112.671 23.288 111.407 23.288ZM111.407 20.408C112.111 20.408 112.727 20.24 113.255 19.904C113.799 19.568 114.223 19.104 114.527 18.512C114.847 17.904 115.007 17.224 115.007 16.472C115.007 15.704 114.847 15.032 114.527 14.456C114.223 13.864 113.799 13.4 113.255 13.064C112.727 12.712 112.111 12.536 111.407 12.536C110.687 12.536 110.055 12.712 109.511 13.064C108.967 13.4 108.535 13.864 108.215 14.456C107.911 15.032 107.759 15.704 107.759 16.472C107.759 17.224 107.911 17.904 108.215 18.512C108.535 19.104 108.967 19.568 109.511 19.904C110.055 20.24 110.687 20.408 111.407 20.408ZM123.661 23L118.525 9.944H121.957L125.677 20.216H124.405L128.149 9.944H131.581L126.445 23H123.661ZM136.09 23.288C135.178 23.288 134.386 23.136 133.714 22.832C133.042 22.528 132.522 22.096 132.154 21.536C131.786 20.96 131.602 20.296 131.602 19.544C131.602 18.824 131.762 18.184 132.082 17.624C132.402 17.048 132.898 16.568 133.57 16.184C134.242 15.8 135.09 15.528 136.114 15.368L140.386 14.672V17.072L136.714 17.696C136.09 17.808 135.626 18.008 135.322 18.296C135.018 18.584 134.866 18.96 134.866 19.424C134.866 19.872 135.034 20.232 135.37 20.504C135.722 20.76 136.154 20.888 136.666 20.888C137.322 20.888 137.898 20.752 138.394 20.48C138.906 20.192 139.298 19.8 139.57 19.304C139.858 18.808 140.002 18.264 140.002 17.672V14.312C140.002 13.752 139.778 13.288 139.33 12.92C138.898 12.536 138.322 12.344 137.602 12.344C136.93 12.344 136.33 12.528 135.802 12.896C135.29 13.248 134.914 13.72 134.674 14.312L132.106 13.064C132.362 12.376 132.762 11.784 133.306 11.288C133.866 10.776 134.522 10.376 135.274 10.088C136.026 9.8 136.842 9.656 137.722 9.656C138.794 9.656 139.738 9.856 140.554 10.256C141.37 10.64 142.002 11.184 142.45 11.888C142.914 12.576 143.146 13.384 143.146 14.312V23H140.17V20.768L140.842 20.72C140.506 21.28 140.106 21.752 139.642 22.136C139.178 22.504 138.65 22.792 138.058 23C137.466 23.192 136.81 23.288 136.09 23.288Z" fill="white"/>
</g>
<defs>
<clipPath id="clip0_1_4">
<rect width="198" height="26" fill="white"/>
</clipPath>
</defs>
</svg>
